<?xml version="1.0" encoding="UTF-8"?>
<svg version="1.1" viewBox="0 0 2048 522" width="1280" height="1280" xmlns="http://www.w3.org/2000/svg">
<path transform="translate(0)" d="m0 0h2048v522h-2048z" fill="#021017"/>
<path transform="translate(1495,105)" d="m0 0h22l13 4 11 6 9 8 7 10 5 12 3 12v5l-16 4-88 17 3 10 7 10 9 8 11 5 7 2 16 1 13-2 12-5 7-5 3-4h3l5 8-5 5-7 6-13 6-17 3h-10l-13-2-13-5-11-7-10-10-7-12-4-12-1-6v-19l4-17 6-11 11-12 10-7 13-5z" fill="#F3FBFD"/>
<path transform="translate(1694,105)" d="m0 0h24l11 3 9 5 7 6 5 8 4 14v88l-1 1h-9l-1-1v-20h-2l-2 4-6 7-10 6-8 3-13 2h-9l-13-2-10-4-10-9-5-8-2-7v-12l4-11 7-8 9-6 12-3 12-1h45l-1-17-3-10-5-8-5-4-10-4-5-1h-16l-16 4-12 6-5 5h-2l-5-8 1-3 11-7 12-5z" fill="#F3FBFD"/>
<path transform="translate(866,104)" d="m0 0 17 1 12 4 9 6 7 8 5 12 1 5v90h-10l-1-1-1-19-9 10-11 7-11 3-14 1-16-2-12-5-10-9-5-11-1-5v-8l4-13 9-10 10-5 8-2 15-1h43v-10l-2-13-5-10-7-6-9-4-5-1h-17l-16 4-13 7-4 3-3-1-3-4 1-5 8-6 13-6 13-3z" fill="#A2E8F6"/>
<path transform="translate(1159,62)" d="m0 0h19l17 3 13 5 10 6 8 6 1 4-6 7-3-1-5-5-12-7-12-4-11-2h-18l-15 3-14 6-10 7-9 8-9 14-5 12-3 16v12l3 17 5 12 7 11 9 10 14 9 10 4 13 3 16 1 15-2 13-4 11-6 9-8 7 7-1 4-10 8-16 8-15 4-9 1h-16l-17-3-14-5-15-9-10-9-10-13-8-17-3-12-1-8v-18l3-16 6-15 8-12 9-10 12-9 16-8 15-4z" fill="#CAF3FA"/>
<path transform="translate(1870,105)" d="m0 0h11l1 25 6-9 9-8 13-6 9-2h23l13 4 11 7 8 10 5 12 2 12v79l-1 1h-10l-1-1-1-10v-65l-2-13-6-12-5-5-8-5-7-2-8-1h-9l-14 3-11 6-8 9-5 10-2 8-1 76-2 2h-10l-1-2v-110z" fill="#F2FAFC"/>
<path transform="translate(1499,115)" d="m0 0h14l12 3 9 5 9 8 6 10 4 12-1 3-77 15-16 3-1-1v-16l3-12 7-13 7-7 10-6z" fill="#021017"/>
<path transform="translate(302,105)" d="m0 0h13l10 12 13 17 11 14 5 7 4-2 9-12 11-14 14-18 3-4h13l-2 4-8 11-28 36-6 8 1 5 9 11 13 17 20 25 4 8h-13l-9-11-15-20-12-15-6-8h-2l-14 19-14 18-10 13-3 4h-13l4-8 11-14 28-36 4-7-13-17-14-18-11-14-7-10z" fill="#41C4EB"/>
<path transform="translate(852,170)" d="m0 0h53l1 1v10l-1 14-6 10-8 8-10 5-14 3-15-1-10-3-6-4-5-6-3-8v-8l4-11 7-6 8-3z" fill="#021017"/>
<path transform="translate(1689,170)" d="m0 0h53v23l-6 11-7 8-14 7-11 2h-9l-12-2-8-4-8-9-2-7v-9l3-8 6-7 9-4z" fill="#021017"/>
<path transform="translate(511,78)" d="m0 0h12v27h37l3 1v9l-1 1h-39l1 84 2 9 4 6 5 3 4 1h13l11-4 3-2 4 7-2 4-6 4-12 3h-10l-12-3-8-6-5-6-4-13v-87h-22l-1-1v-9l1-1h22z" fill="#43C5EB"/>
<path transform="translate(1331,53)" d="m0 0h12v176l-1 1h-10l-1-1z" fill="#FDFDFD"/>
<path transform="translate(726,104)" d="m0 0h2l1 7-1 5-14 2-11 4-9 7-7 11-3 8-1 6-1 75-1 1h-10l-1-1v-123l1-1h9l1 1 1 24 6-9 8-8 12-6 9-2z" fill="#78D4EE"/>
<path transform="translate(102,139)" d="m0 0h99l8 1v10l-1 1h-106l-1-1v-10z" fill="#0FADE5"/>
<path transform="translate(102,218)" d="m0 0h70l37 1v11h-107l-1-1v-10z" fill="#0FADE5"/>
<path transform="translate(101,63)" d="m0 0h108v11h-108z" fill="#0FADE5"/>
<path transform="translate(168,342)" d="m0 0h9l7 4 4 7v6l-18 4-10 1 3 7 6 3h8l5-2 1-2 3 1-1 4-6 3h-13l-6-4-5-8v-12l4-7 6-4z" fill="#E6F7FB"/>
<path transform="translate(703,342)" d="m0 0h7l8 4 4 7v6l-18 4-10 2 3 6 6 3h9l5-4 3 1-1 4-6 3h-12l-6-3-4-5-2-4v-12l4-7 5-4z" fill="#E9F8FC"/>
<path transform="translate(528,415)" d="m0 0h8l7 4 3 7v8l-5 8-3 2h-11l-6-4-3-5v-10l4-7z" fill="#021017"/>
<path transform="translate(503,346)" d="m0 0h12l7 6 1 3v10l-3 5-5 4-2 1h-8l-6-4-3-4-1-3v-7l3-7z" fill="#021017"/>
<path transform="translate(562,346)" d="m0 0h10l5 3 3 3 1 3v10l-4 7-5 3h-9l-6-4-3-4-1-10 4-8z" fill="#021017"/>
<path transform="translate(917,346)" d="m0 0h11l7 6 1 2v11l-4 7-5 3h-9l-6-4-4-8 1-9 4-6z" fill="#021017"/>
<path transform="translate(452,415)" d="m0 0h8l7 4 3 5v11l-4 6-4 3h-11l-7-6-2-6 1-9 5-6z" fill="#021017"/>
<path transform="translate(174,415)" d="m0 0h7l6 3 4 5 1 3v7l-4 8-5 3h-10l-6-4-3-5v-10l4-7z" fill="#021017"/>
<path transform="translate(966,411)" d="m0 0 8 2 4 4 2 7v23h-4l-1-3-4 3-4 1h-8l-5-3-3-4v-8l6-5 6-1h12l-1-8-4-3h-10l-5 3h-3l2-5z" fill="#DFF5FB"/>
<path transform="translate(320,415)" d="m0 0h7l6 3 4 4 1 3v9l-4 7-5 3h-10l-6-4-3-6v-8l3-6 5-4z" fill="#021017"/>
<path transform="translate(387,346)" d="m0 0h11l7 6 1 2v12l-4 6-5 3h-8l-7-4-3-5v-11l3-5z" fill="#021017"/>
<path transform="translate(1061,411)" d="m0 0 10 2 4 5 1 2 1 10v17h-4v-4l-6 4-4 1h-7l-6-3-3-6 1-6 4-4 2-1 15-1h3l-2-9-3-2h-10l-6 3h-2l1-4 6-3z" fill="#DBF4FA"/>
<path transform="translate(668,412)" d="m0 0h13l5 4 2 4 1 7v17l-1 4-3-1v-4l-6 4-3 1h-8l-6-3-3-6 1-6 4-4 2-1 15-1h3l-1-7-2-3-3-1h-9l-6 3h-2l2-5z" fill="#DCF4FA"/>
<path transform="translate(578,412)" d="m0 0h13l5 4 2 5v26h-3v-4l-6 4-4 1h-7l-6-3-3-5 1-8 3-3 9-2h12l-2-9-4-2h-9l-6 3h-2l1-4z" fill="#DCF4FA"/>
<path transform="translate(845,411)" d="m0 0 10 2 4 5 1 2v28l-3-1v-4l-6 4-3 1h-8l-6-3-3-6 1-6 4-4 9-2h12l-3-9-3-2h-10l-6 3h-2l1-4 6-3z" fill="#DFF5FB"/>
<path transform="translate(608,342)" d="m0 0h3l1 5 5-4 3-1h10l5 3 3 4 5-5 5-2h8l6 3 3 4 1 3v26h-3l-1-21-2-7-4-3h-10l-5 5-1 3-1 23-4-1-1-25-5-5h-10l-5 4-2 7-1 20h-3z" fill="#EDF9FC"/>
<path transform="translate(524,327)" d="m0 0h3v51h-3l-1-6-6 5-3 1h-10l-6-3-5-6-2-6 1-10 4-6 5-4 3-1h10l7 4 2 2v-20zm-21 19-6 5-2 6v7l3 6 5 4 2 1h8l6-4 3-3 1-3v-10l-3-5-5-4z" fill="#E8F7FB"/>
<path transform="translate(515,411)" d="m0 0 3 3 1 3 7-5 7-1 8 2 5 4 4 9v7l-3 7-4 5-8 3-10-1-6-5-1 18h-4v-48zm13 4-6 3-4 7v10l5 7 4 2h11l5-4 3-6v-8l-3-7-7-4z" fill="#EBF9FC"/>
<path transform="translate(113,330)" d="m0 0h13l6 3 1 4-11-3-10 1-4 3-1 6 2 4 22 8 4 5 1 6-4 8-6 3h-15l-8-4-1-5 4 2 7 3h12l5-4 1-7-4-4-17-5-7-6-1-7 3-6 5-4z" fill="#EAF8FC"/>
<path transform="translate(118,400)" d="m0 0h16l5 2 3 4-1 3-7-4-4-1h-9l-7 3-5 5-3 7v10l4 8 7 5 3 1h12l8-4h2l-1 4-6 4-5 1-13-1-8-5-5-6-3-8v-9l4-10 8-7z" fill="#E9F8FC"/>
<path transform="translate(388,342)" d="m0 0h9l7 3 4 5 3 8-1 8-4 7-5 4-2 1h-12l-7-4-4-6-1-3v-10l4-8 6-4zm-1 4-7 6-1 3v11l4 6 6 3h8l6-4 3-5v-12l-6-7-2-1z" fill="#E9F8FC"/>
<path transform="translate(176,411)" d="m0 0 10 2 5 3 5 10v7l-3 7-4 5-9 3-9-1-5-3-4-5-2-5v-9l4-8 7-5zm-2 4-7 4-3 6v10l5 7 4 2h10l6-4 3-7v-7l-3-6-5-4-3-1z" fill="#E7F7FB"/>
<path transform="translate(318,412)" d="m0 0h12l8 5 4 8v9l-4 8-5 4-7 2-9-1-6-4-4-6-1-4v-7l5-10zm2 3-6 4-3 4-1 3v8l4 7 5 3h10l6-4 3-6v-9l-3-5-5-4-3-1z" fill="#E9F8FC"/>
<path transform="translate(918,342)" d="m0 0h9l8 4 5 8v12l-6 9-6 3h-12l-6-4-5-8v-12l5-8zm-1 4-5 3-3 5-1 9 4 8 6 4h9l6-4 3-6v-11l-6-7-2-1z" fill="#EDF9FC"/>
<path transform="translate(563,342)" d="m0 0h9l8 4 4 6 1 3v10l-4 8-5 4-3 1h-11l-6-3-5-6-1-3v-12l5-8zm-1 4-6 4-3 7 1 10 5 6 4 2h9l6-4 3-6v-10l-3-5-3-3-3-1z" fill="#EBF9FC"/>
<path transform="translate(450,412)" d="m0 0h13l6 4 5 8v11l-5 8-3 3-7 2-10-1-6-4-4-7v-13l4-6 5-4zm2 3-6 4-3 4-1 9 3 7 6 5h11l6-5 2-4v-11l-4-6-6-3z" fill="#ECF9FC"/>
<path transform="translate(777,411)" d="m0 0 3 1 1 24 3 6 2 1h11l5-5 1-2 1-23 1-2 3 1v36l-3-1-1-5-5 5-10 1-6-2-5-5-2-7v-21z" fill="#E6F7FC"/>
<path transform="translate(219,411)" d="m0 0 3 3 1 3 6-5 9-1 7 3 4 5 1 3v25h-3l-1-19-2-9-5-3h-8l-6 4-2 4-1 23h-4v-35z" fill="#E7F8FC"/>
<path transform="translate(1012,411)" d="m0 0 10 1 5 2v4l-8-2h-9l-3 2v6l2 2 16 4 4 5-1 7-5 5-4 1h-8l-9-3-1-5 5 2 2 1h14l2-3v-5l-10-3-9-3-3-4v-7l5-5z" fill="#DDF4FA"/>
<path transform="translate(738,411)" d="m0 0h7l8 3v4l-7-2h-10l-3 2v6l2 2 16 4 4 5v6l-4 5-6 2h-8l-9-3v-5l4 2 3 1h13l2-2v-6l-5-2-12-3-5-6 1-7 4-4z" fill="#E1F6FB"/>
<path transform="translate(967,342)" d="m0 0h11l5 1 1 5-6-1h-14v8l8 3 9 2 4 4 1 6-3 5-4 3h-14l-6-2-1-4h4l5 2h11l3-3v-7l-16-3-5-4-1-2v-6l5-6z" fill="#E5F7FB"/>
<path transform="translate(437,342)" d="m0 0h11l6 2v4l-5-1h-13l-2 2 1 7 16 4 5 5v6l-5 6-2 1h-15l-5-3-1-3h4l4 2h12l3-3v-7l-16-3-5-5-1-7 4-5z" fill="#E5F7FB"/>
<path transform="translate(750,342)" d="m0 0h10l6 2v4l-12-2-7 2-1 6v2l17 4 5 4v8l-5 5-2 1h-14l-6-3v-4l5 2 3 1h11l3-2v-7l-15-4-5-3-2-7 3-6z" fill="#E4F6FB"/>
<path transform="translate(339,342)" d="m0 0h9l7 3 1 6-4-2-3-2h-11l-5 3-3 7 1 10 4 5 5 2h8l6-4h2l-1 5-5 3-6 1-1 5h-3l-1-6-7-3-4-5-2-4v-12l5-8z" fill="#E7F7FC"/>
<path transform="translate(700,346)" d="m0 0h11l5 3 3 6v2l-26 5-1-5 3-7z" fill="#021017"/>
<path transform="translate(171,345)" d="m0 0 8 2 5 5 1 4-4 2-22 4-1-1 1-8 5-6z" fill="#021017"/>
<path transform="translate(916,411)" d="m0 0 9 1 5 4 1 4-10-4h-7l-6 3-3 6v10l4 6 3 2h12l6-4v4l-5 4-3 1h-7l-8-3-5-6-2-5v-9l4-8 8-5z" fill="#E5F7FB"/>
<path transform="translate(869,342)" d="m0 0h9l6 3 2 2v4l-4-2-3-2h-11l-5 3-3 7v7l3 6 6 4h9l5-3 2-2 1 4-6 5h-13l-6-4-4-5-2-10 3-9 5-5z" fill="#E7F7FC"/>
<path transform="translate(287,396)" d="m0 0 6 2v3l-5-1-6 3-1 9 10-1v4h-10v24l-1 9-3-1v-32h-6l1-4 5 1v-9l4-5z" fill="#DFF5FB"/>
<path transform="translate(964,430)" d="m0 0h10l2 1v7l-4 5-5 2-9-1-3-3-1-6 4-4z" fill="#021017"/>
<path transform="translate(1060,430)" d="m0 0h12l1 1-1 8-6 5-8 1-5-2-2-3 1-7 2-2z" fill="#021017"/>
<path transform="translate(246,341)" d="m0 0 4 4 11 25v3h2l3-9 10-21 3-2-1 7-12 26-3 5h-2l-8-16-8-19z" fill="#E9F8FC"/>
<path transform="translate(854,430)" d="m0 0 3 1v6l-5 6-5 2-8-1-4-4 1-7 3-2z" fill="#021017"/>
<path transform="translate(576,431)" d="m0 0h18v8l-6 5-9 1-5-3-1-1v-7z" fill="#021017"/>
<path transform="translate(667,431)" d="m0 0h18l-1 7-4 5-6 2-7-1-3-3-1-6z" fill="#021017"/>
<path transform="translate(405,404)" d="m0 0 4 1v7h5l1 3h-6l1 26 1 2h10l1 2-1 2-9 1-5-3-2-5v-25h-6v-3h6z" fill="#E8F8FC"/>
<path transform="translate(791,334)" d="m0 0h3v8h11v4h-10v23l1 4 2 1h6l3-1-1 5h-10l-5-5v-27l-7-1 1-3 5 1z" fill="#E6F7FB"/>
<path transform="translate(625,411)" d="m0 0 3 3 1 3 4-4 5-2h3v4l-8 3-3 3-1 3-1 23h-4v-35z" fill="#E9F8FC"/>
<path transform="translate(365,411)" d="m0 0 3 2v5h2l2-4 6-3h3v4l-8 3-3 4-1 3-1 22h-4v-35z" fill="#E0F6FB"/>
<path transform="translate(212,342)" d="m0 0 3 1 1 5 5-5 7-1-1 4-6 2-4 4-1 3-1 22h-4v-34z" fill="#E5F7FB"/>
<path transform="translate(1131,214)" d="m0 0 7 1 4 2 18 4v3l-13 1-8-2-7-4z" fill="#FBFDFD"/>
<path transform="translate(830,342)" d="m0 0 3 1v35l-4-1v-34z" fill="#ECFAFC"/>
<path transform="translate(300,342)" d="m0 0 3 1v35h-3l-1-3v-32z" fill="#D2F0F9"/>
<path transform="translate(718,114)" d="m0 0h8l2 2-14 2-11 4-4 2 1-3 10-5z" fill="#34BEE9"/>
<path transform="translate(710,358)" d="m0 0 3 1 2 2-17 3-4-1 1-2z" fill="#D5F3FA"/>
<path transform="translate(175,358)" d="m0 0 4 1 2 2-11 2h-8v-2z" fill="#D5F3FA"/>
<path transform="translate(845,411)" d="m0 0 5 1v1l-5 1-10 5h-2l1-4 6-3z" fill="#CEF1F9"/>
<path transform="translate(345,382)" d="m0 0 3 3v5l-4 3h-6l-2-4 8 2z" fill="#E0F6FB"/>
<path transform="translate(844,221)" d="m0 0 10 2v3l-7 1-3-1z" fill="#D8F8FC"/>
<path transform="translate(354,370)" d="m0 0h2l-1 5-5 3h-6l4-4z" fill="#D9F3FA"/>
<path transform="translate(711,328)" d="m0 0h3l-1 4-7 5h-3l2-4z" fill="#D3F2FA"/>
<path transform="translate(1133,212)" d="m0 0 10 3 13 3v1h-8l-7-2-8-4z" fill="#7EDAF2"/>
<path transform="translate(289,411)" d="m0 0h2v4h-10v-3z" fill="#BDEDF8"/>
<path transform="translate(675,216)" d="m0 0h2l1 7-3 2-2-4v-4z" fill="#48C7EC"/>
</svg>
