<?xml version="1.0" encoding="UTF-8"?>
<svg version="1.1" viewBox="0 0 1249 952" width="1280" height="1280" xmlns="http://www.w3.org/2000/svg">
<path transform="translate(0)" d="m0 0h1249v952h-1249z" fill="#111212"/>
<path transform="translate(989,368)" d="m0 0 7 1 13 17 13 16 12 16 13 16 10 13 3 4 1-82h8v99h-6l-7-8-13-17-13-16-12-16-14-17-7-10-1 84h-7l-1-98z" fill="#64A2B2"/>
<path transform="translate(644,368)" d="m0 0h18l14 4 10 7 2 4-5 4-10-7-8-3-6-1h-12l-11 3-8 4-10 9-6 12-2 8v13l4 13 7 10 9 7 10 4 5 1h17l12-4 8-6 4 1 2 4-5 5-14 7-13 2h-8l-14-3-12-6-9-8-7-11-4-11-1-16 3-14 5-10 9-10 10-7 11-4z" fill="#64A2B2"/>
<path transform="translate(447,368)" d="m0 0h15l12 3 10 5-1 6h-3l-12-5-4-1h-19l-10 4-3 1-2 4-2 6v7l3 6 5 4 10 4 27 8 8 5 6 7 2 6v7l-3 9-7 8-8 4-7 2h-22l-12-4-9-5-3-3 1-5 2-1 9 6 12 4 6 1h11l12-3 8-7 1-3v-11l-4-6-10-5-28-8-10-5-6-7-2-5v-13l4-8 9-8 9-3z" fill="#64A2B2"/>
<path transform="translate(917,369)" d="m0 0h9l11 23 15 33 18 39v4h-7l-8-16-15-33-16-35-2-5-7 15-19 41-12 27-3 6h-8l1-5 36-78z" fill="#64A2B2"/>
<path transform="translate(264,368)" d="m0 0h14l13 3 11 6 4 4-2 4-4 1-8-6-12-4h-16l-13 4-9 6-7 8-5 10-2 10 1 15 5 12 7 9 11 7 10 3h19l11-4 9-6 3 1v2h2l-2 4-8 6-14 5h-21l-13-4-11-7-7-7-7-12-3-12v-15l3-12 4-8 8-10 10-7 9-4z" fill="#64A2B2"/>
<path transform="translate(542,369)" d="m0 0h8l18 39 15 33 11 24v3h-7l-8-16-9-20-12-26-12-27-2 3-8 17-16 36-13 28-3 5h-7l1-5 15-32 15-33 13-28z" fill="#64A2B2"/>
<path transform="translate(356,369)" d="m0 0h8l8 16 30 65 7 15-1 3h-6l-3-5-14-30-13-29-11-24-1-1-13 28-15 33-12 27-1 1h-7l1-5 15-33 19-41z" fill="#64A2B2"/>
<path transform="translate(712,369)" d="m0 0h8v92h56v7h-64z" fill="#64A2B2"/>
<path transform="translate(795,461)" d="m0 0h64v7h-64z" fill="#64A2B2"/>
<path transform="translate(795,414)" d="m0 0h64v7h-64z" fill="#64A2B2"/>
<path transform="translate(795,369)" d="m0 0h64v7h-64z" fill="#64A2B2"/>
<path transform="translate(503,505)" d="m0 0 6 1 4 4 1 6-14 3h-3v3h2v2h10l4-1-1 3-2 1h-9l-5-3-2-4v-8l5-6z" fill="#64A2B2"/>
<path transform="translate(254,505)" d="m0 0 7 2 4 4v5l-17 3 2 5h10l4-1-4 4h-9l-5-4-1-3v-8l4-5z" fill="#64A2B2"/>
<path transform="translate(664,544)" d="m0 0h8l4 3 1 3v15l-2 1v-3l-5 3h-6l-5-5 1-5 2-2 5-1h7l-2-6h-8l-4 1 1-3z" fill="#64A2B2"/>
<path transform="translate(563,544)" d="m0 0h8l4 3 1 5v12l-2 2-2-2-4 2-7-1-3-3v-5l3-3 5-1h7l-1-6h-9l-4 1v-2z" fill="#64A2B2"/>
<path transform="translate(620,544)" d="m0 0h9l3 3 1 2v16l-3-1-4 2-8-1-3-5 2-5 5-2h9l-3-6h-7l-4 1 1-3z" fill="#64A2B2"/>
<path transform="translate(481,544)" d="m0 0h8l5 5v16l-3-1-5 2-7-1-3-4 1-5 2-2 4-1h9l-3-6h-8l-4 1z" fill="#64A2B2"/>
<path transform="translate(441,544)" d="m0 0h8l5 5v16h-2v-2l-5 3-8-1-3-5 2-5 5-2h9l-3-6h-7l-4 1 1-3z" fill="#64A2B2"/>
<path transform="translate(461,505)" d="m0 0 7 2 3 2 3-3 7-1 5 3 2 4v15h-2l-1-13-2-5-5-1-5 3-1 2-1 14h-2l-1-15-2-3h-8l-2 2-1 14-1 2h-2v-21h2v2z" fill="#64A2B2"/>
<path transform="translate(417,496)" d="m0 0h1v31h-2l-1-2-3 2h-9l-5-4-1-3v-8l4-5 8-2 6 3 1-11zm-14 12-3 3-1 8 3 5 2 1h7l5-5v-7l-4-5z" fill="#64A2B2"/>
<path transform="translate(411,544)" d="m0 0 2 1v2l5-3h7l5 3 2 4v8l-5 6-8 1-5-3-1 10h-2l-1-26zm7 2-5 5v7l4 5 6 1 5-3 2-4-1-7-4-4z" fill="#64A2B2"/>
<path transform="translate(234,536)" d="m0 0 9 2 2 3-5-1h-10l-5 4-2 5 1 7 2 4 7 3 7-1 5-1-4 4-9 1-8-4-3-4-1-3v-8l4-7 5-3z" fill="#64A2B2"/>
<path transform="translate(227,498)" d="m0 0h8l5 3-3 1-9-1-4 1v6l6 3 8 3 3 3-1 7-4 3h-11l-5-3 3-1 2 1h10l3-3-2-5-12-4-3-3v-6l4-4z" fill="#64A2B2"/>
<path transform="translate(255,544)" d="m0 0h8l5 4 2 5-1 7-5 5-7 1-6-3-3-5 1-9zm1 2-5 4v9l4 4 5 1 6-3 1-2v-8l-5-5z" fill="#64A2B2"/>
<path transform="translate(347,506)" d="m0 0h10l5 5 1 8-3 5-4 3h-8l-6-5-1-2 1-9zm1 2-4 4v9l4 4h8l4-4v-9l-4-4z" fill="#64A2B2"/>
<path transform="translate(379,544)" d="m0 0h8l5 4 2 4v6l-4 6-5 2-7-1-5-5-1-7 3-6zm1 2-5 5v8l4 4 6 1 5-3 2-5-1-6-5-4z" fill="#64A2B2"/>
<path transform="translate(321,544)" d="m0 0h8l6 5 1 2v7l-3 5-6 3-7-1-5-5-1-7 3-6zm1 2-5 5v8l4 4 6 1 6-4 1-8-4-5-2-1z" fill="#64A2B2"/>
<path transform="translate(597,505)" d="m0 0 8 2 3 3 1 3v7l-4 6-2 1h-9l-5-4-1-2v-9l4-5zm-3 3-4 5v7l5 5h7l4-4 1-7-4-6z" fill="#64A2B2"/>
<path transform="translate(431,506)" d="m0 0h9l5 5 1 2v7l-3 5-3 2h-9l-5-4-1-2v-9l4-5zm0 2-4 5v7l5 5h7l4-4 1-7-3-5-1-1z" fill="#64A2B2"/>
<path transform="translate(329,505)" d="m0 0 7 2 1 3-3-1h-9l-3 5v6l4 4h7l4-2-1 4-6 2 2 2v5l-1 1h-5l1-2 3-1-2-2v-4l-5-1-3-3-1-3v-8l4-5z" fill="#64A2B2"/>
<path transform="translate(532,544)" d="m0 0h2l1 13 2 5 6 1 4-2 1-2 1-15h2v21h-2v-2l-6 3-7-1-4-5z" fill="#64A2B2"/>
<path transform="translate(514,544)" d="m0 0h9l2 1v2h-10l-1 5 10 3 3 3-1 5-5 3-9-1-2-1v-2l11 1 2-1v-4l-11-4-1-1v-6z" fill="#64A2B2"/>
<path transform="translate(276,544)" d="m0 0h2v3l5-3h8l4 4v18l-2-1-1-15-3-3h-6l-4 4-1 14h-2z" fill="#64A2B2"/>
<path transform="translate(643,544)" d="m0 0h9l2 1v2h-10l-2 1 1 4 10 3 2 2v6l-6 3-8-1-2-1 1-3 5 2 7-1v-4l-12-4-1-6z" fill="#64A2B2"/>
<path transform="translate(525,505)" d="m0 0 7 1v3l-7-1-3 1-1 5 12 3 2 3-1 5-3 2h-10l-3-2v-2l4 1h9l1-5-12-3-1-1v-7l2-2z" fill="#64A2B2"/>
<path transform="translate(373,505)" d="m0 0 9 2v2l-9-1-3 1 1 5 10 3 2 2-1 6-3 2h-10l-3-3 2-1 2 1h9l1-4-10-3-3-3 1-7z" fill="#64A2B2"/>
<path transform="translate(620,505)" d="m0 0 7 1 1 3-8-1-4 2v3l11 4 2 2v5l-3 3h-11l-2-4 3 1h9l1-4-9-3-4-3v-5l3-3z" fill="#64A2B2"/>
<path transform="translate(254,507)" d="m0 0 7 2 2 5-6 2-10 1 1-6 3-3z" fill="#111212"/>
<path transform="translate(503,507)" d="m0 0 5 1 4 4-1 3-11 2h-4l1-6 3-3z" fill="#111212"/>
<path transform="translate(575,505)" d="m0 0 6 1 3 2v2l-4-1h-8l-3 3v9l3 3h8l4-1-4 4h-8l-6-5-1-8 4-7z" fill="#64A2B2"/>
<path transform="translate(599,544)" d="m0 0h8l4 4h-3l-2-1h-6l-4 3-1 7 2 4 4 2 6-1 4-1-1 3-4 2-8-1-5-5-1-2 1-9z" fill="#64A2B2"/>
<path transform="translate(621,555)" d="m0 0h9l1 5-5 4-7-1-1-1v-5z" fill="#111212"/>
<path transform="translate(564,555)" d="m0 0h9v6l-4 3-7-1-2-2 1-4z" fill="#111212"/>
<path transform="translate(483,555)" d="m0 0h8l1 4-5 5-7-1-2-4 2-3z" fill="#111212"/>
<path transform="translate(665,555)" d="m0 0h9l-1 7-3 2-7-1-2-5 1-2z" fill="#111212"/>
<path transform="translate(443,555)" d="m0 0h8l1 4-5 5-7-1-1-1v-5z" fill="#111212"/>
<path transform="translate(307,535)" d="m0 0h6l1 2-7 2-1 5h7v2h-7v20l-2-1v-19h-4v-2h4v-6z" fill="#64A2B2"/>
<path transform="translate(285,506)" d="m0 0h2l8 17 7-15 1-2h2l-1 5-7 16-4-1-8-18z" fill="#64A2B2"/>
<path transform="translate(360,539)" d="m0 0 2 1v4h6v2h-6l1 16 5 1 1 2-6 1-3-3-1-16-3-1v-2l3-1z" fill="#64A2B2"/>
<path transform="translate(541,501)" d="m0 0h2l1 4 6 1-1 2h-6l1 17h7l-1 2h-6l-3-3-1-16-3-1 1-2h3z" fill="#64A2B2"/>
<path transform="translate(462,544)" d="m0 0h2l1 2 4-2h3v2l-5 2-2 6-1 12-2-1z" fill="#64A2B2"/>
<path transform="translate(342,544)" d="m0 0h2v3l5-3h3v2l-6 3-2 16h-2z" fill="#64A2B2"/>
<path transform="translate(272,506)" d="m0 0h2l1 2 2-2h5l-1 2-5 2-1 2-1 15h-2z" fill="#64A2B2"/>
<path transform="translate(310,506)" d="m0 0h2l1 15v5l-3 1z" fill="#64A2B2"/>
</svg>
