<?xml version="1.0" encoding="UTF-8"?>
<svg version="1.1" viewBox="0 0 2048 594" width="240"  xmlns="http://www.w3.org/2000/svg">
<path transform="translate(0)" d="m0 0h2048v594h-2048z" fill="#021017"/>
<path transform="translate(1725,136)" d="m0 0 13 1 12 15 13 17 13 16 10 13 11 14 14 18 33 42 14 18 12 15 1 2 1-170 5-1 10 1v198l-7 1-6-1-13-16-10-13-14-18-12-15-13-17-13-16-10-13-44-56-4-6-1 14v156l-1 1h-13l-1-1-1-36v-143z" fill="#F4FCFE"/>
<path transform="translate(639,135)" d="m0 0h19l18 3 15 5 17 9-1 6-3 6-4-1-14-7-16-5-14-2h-18l-16 3-16 8-8 9-4 10v17l3 8 8 9 10 6 21 7 38 10 16 6 10 7 8 7 6 10 3 11v14l-4 13-6 10-4 5-13 9-13 5-14 3-9 1h-16l-21-3-15-5-16-8-11-8-2-5 5-8 4 1 10 8 14 7 12 4 18 3h18l14-2 10-3 11-6 8-9 4-10v-15l-3-9-9-10-16-8-29-8-25-7-13-5-12-7-8-8-6-12-2-8v-15l4-13 6-10 4-5 12-9 13-5 13-3z" fill="#23C5F6"/>
<path transform="translate(1037,135)" d="m0 0h21l18 3 15 5 15 8 12 10-1 4-6 7-5-2-7-6-12-7-15-5-11-2h-26l-17 4-16 7-14 10-8 8-7 10-8 16-4 16-1 10v10l2 15 4 14 8 15 8 10 8 8 14 9 14 6 18 4h25l14-3 13-5 12-7 8-7 4 1 6 7-2 4-9 8-14 8-18 6-9 2-9 1h-19l-18-3-18-6-16-9-13-11-8-9-9-14-6-13-4-14-2-18 1-20 4-17 5-12 6-11 11-14 11-10 14-9 14-6 14-4z" fill="#F5FCFE"/>
<path transform="translate(270,135)" d="m0 0h18l18 3 18 6 11 6 13 11 1 2-7 8h-4l-7-6-13-8-15-5-10-2h-28l-17 4-13 6-10 6-10 9-8 9-8 13-5 13-3 14v21l3 17 5 13 8 14 11 12 10 7 15 8 12 4 12 2h24l18-4 12-5 11-7 7-6 4 2 6 7-4 5-12 9-15 7-17 5-14 2h-16l-20-3-15-5-16-8-13-10-8-8-10-14-8-16-4-14-2-15v-15l3-19 6-18 7-12 9-12 9-9 14-10 15-7 17-5z" fill="#23C5F6"/>
<path transform="translate(1588,136)" d="m0 0h8l3 3 17 37 15 33 16 34 11 24 30 65-1 4-15-1-16-36-19-41-32-70-15-33-2 2-11 25-16 35-16 36-18 39-13 29-7 14-1 1h-14l-1-2 16-34 15-33 19-41 12-26 16-35 13-28z" fill="#F5FCFE"/>
<path transform="translate(463,136)" d="m0 0 3 1 15 32 12 26 15 33 19 41 11 24 18 39v3h-15l-8-16-9-20-32-70-16-36-14-30-3-9h-2l-3 9-17 37-15 33-16 35-30 66-1 1h-15l1-5 17-36 11-24 48-104 13-29z" fill="#23C5F6"/>
<path transform="translate(837,136)" d="m0 0 3 1 7 16 18 39 34 74 13 28 11 24 7 15v2h-16l-17-37-12-26-13-29-16-35-15-33-9-20-2-1-1 5-16 36-17 37-16 36-17 37-13 29-1 1h-15l1-5 11-24 13-28 16-35 19-41 18-39 11-25 1-1z" fill="#23C5F6"/>
<path transform="translate(1169,136)" d="m0 0 13 1v185h114l1 1v12l-1 1h-129v-199z" fill="#FBFEFE"/>
<path transform="translate(1334,322)" d="m0 0h128l1 1v13h-129z" fill="#F7FDFE"/>
<path transform="translate(1334,136)" d="m0 0h128l1 1v13h-129z" fill="#EFFBFE"/>
<path transform="translate(1334,228)" d="m0 0h129v13l-33 1h-53l-43-1z" fill="#F8FDFE"/>
<path transform="translate(439,415)" d="m0 0 8 1 7 4 4 7 1 9-3 9-6 5-6 2-10-1-7-6-3-6v-10l4-8 5-4z" fill="#021017"/>
<path transform="translate(382,493)" d="m0 0h11l6 4 4 5 2 6-1 10-4 6-6 4-3 1h-7l-7-3-6-7-1-3v-9l3-7 5-5z" fill="#021017"/>
<path transform="translate(553,415)" d="m0 0 9 2 7 8 2 6-1 10-4 6-6 4-9 1-8-3-5-6-2-5v-8l3-7 5-5z" fill="#021017"/>
<path transform="translate(499,493)" d="m0 0h10l6 3 5 6 1 3v12l-5 8-5 3-4 1h-7l-8-4-5-8v-12l5-8 4-3z" fill="#021017"/>
<path transform="translate(576,493)" d="m0 0h10l6 3 5 6 1 3v12l-4 7-6 4-10 1-7-3-6-7-1-3v-10l4-8 5-4z" fill="#021017"/>
<path transform="translate(932,416)" d="m0 0h12l6 4 4 5 1 3v11l-3 6-5 5-7 2-9-1-6-4-4-7v-12l3-6 6-5z" fill="#021017"/>
<path transform="translate(604,416)" d="m0 0h11l5 3 5 6 2 6-1 9-4 7-6 4-9 1-8-3-5-6-2-5v-8l3-7 4-5z" fill="#021017"/>
<path transform="translate(249,493)" d="m0 0h10l8 5 4 8v10l-3 6-5 5-7 2-9-1-7-5-3-6v-12l5-8 4-3z" fill="#021017"/>
<path transform="translate(241,412)" d="m0 0h11l8 4 6 9 1 6-3 2-27 5h-6l4 8 5 4 11 1 8-3 5-2-1 4-5 4-3 1h-15l-8-5-4-5-2-4v-14l4-8 8-6z" fill="#23C5F6"/>
<path transform="translate(743,412)" d="m0 0h11l8 4 6 9v7l-13 3-22 4 3 6 6 5 4 1h7l8-3 4-2v4l-5 4-3 1h-15l-8-5-5-7-1-3v-13l4-8 6-5z" fill="#23C5F6"/>
<path transform="translate(869,489)" d="m0 0h12l6 3 4 6 1 4v30l-4 1-1-6-5 4-5 2h-10l-6-3-4-6v-8l5-6 7-2h19l-3-11-5-3h-11l-7 3h-4l2-4 5-3z" fill="#23C5F6"/>
<path transform="translate(624,489)" d="m0 0h11l8 4 3 6 1 6v27l-4 1v-7h-2v2l-6 4-4 1h-9l-6-3-4-5-1-5 3-7 3-3 7-2h19l-3-11-5-3h-12l-9 4v-4l6-4z" fill="#23C5F6"/>
<path transform="translate(706,489)" d="m0 0h9l7 3 4 6 1 3v32l-4-1-1-5-6 5-4 1h-10l-7-4-3-5v-7l4-6 8-3h19l-2-10-3-3-3-1h-12l-9 4 1-5 6-3z" fill="#23C5F6"/>
<path transform="translate(1073,489)" d="m0 0h11l6 3 4 5 2 7v21l-1 8h-3l-1-6-7 5-4 1h-8l-7-3-4-5-1-5 3-7 5-4 5-1h19l-3-10-3-3-2-1h-12l-8 4h-2l1-4 6-4z" fill="#23C5F6"/>
<path transform="translate(985,489)" d="m0 0h11l7 3 4 8v33h-3l-1-6-5 4-6 2h-9l-6-3-4-5-1-6 3-7 5-3 4-1 19-1-2-9-3-3-2-1h-12l-9 4v-4l6-4z" fill="#23C5F6"/>
<path transform="translate(644,412)" d="m0 0h3v8h2l2-4 8-4h11l6 4 4 5 7-7 5-2h11l7 4 4 6 1 5v28h-4l-1-29-3-6-4-3h-12l-5 3-3 6-1 4-1 26-4-2-1-30-4-6-2-1h-13l-5 4-3 7-1 27-3 1-1-1z" fill="#23C5F6"/>
<path transform="translate(571,394)" d="m0 0h4v61h-4l-1-8-5 5-5 3h-13l-8-4-6-8-1-4v-11l4-8 5-5 6-3h12l6 3 5 5zm-18 21-9 3-5 5-3 7v8l4 8 5 4 6 2 9-1 6-4 4-6 1-10-3-8-6-6z" fill="#23C5F6"/>
<path transform="translate(560,489)" d="m0 0h3l1 8 7-6 6-2h9l8 3 6 7 3 9-1 11-6 9-7 4-4 1h-7l-8-3-5-5-1 23-4 1zm16 4-6 3-4 5-2 5v10l3 6 7 6 10 1 8-3 5-6 1-3v-12l-3-6-6-5-3-1z" fill="#23C5F6"/>
<path transform="translate(190,397)" d="m0 0h13l9 3 3 4-3 1-8-3h-14l-6 4-2 5 1 6 5 4 22 7 5 4 2 4v8l-3 6-6 4-3 1h-17l-9-4-4-4 4-1 8 4 5 1h9l8-3 3-5v-6l-5-5-13-4-11-4-5-5-1-3v-7l3-6 5-4z" fill="#23C5F6"/>
<path transform="translate(200,474)" d="m0 0h11l11 4 3 3-1 4-10-5-4-1h-9l-9 3-7 6-4 9v13l3 7 5 6 8 4 5 1h7l11-4 5-2v4l-7 5-8 2h-9l-10-3-8-6-4-5-3-7-1-11 2-9 6-9 8-6z" fill="#23C5F6"/>
<path transform="translate(249,489)" d="m0 0h10l7 3 5 5 4 8v12l-4 8-7 6-6 2h-8l-8-3-5-4-4-8-1-10 3-9 6-7zm0 4-6 3-4 5-2 4v12l4 7 6 4 9 1 8-3 6-7 1-3v-10l-4-8-8-5z" fill="#23C5F6"/>
<path transform="translate(604,412)" d="m0 0h11l8 4 6 7 2 7v8l-4 10-8 6-2 1h-14l-8-4-6-8-1-3v-12l4-8 8-7zm0 4-6 3-5 7-1 4v8l4 8 5 4 6 2 9-1 7-5 4-9-1-10-4-6-4-4-3-1z" fill="#23C5F6"/>
<path transform="translate(382,489)" d="m0 0h10l8 3 6 7 3 8v7l-3 9-4 5-7 4-4 1h-8l-8-3-7-8-2-6v-11l4-8 7-6zm0 4-7 4-4 6-1 4v9l3 6 7 6 4 1h7l8-4 4-5 2-6-1-10-4-6-5-4-2-1z" fill="#23C5F6"/>
<path transform="translate(932,412)" d="m0 0h12l8 4 6 8 1 3v13l-4 8-6 5-4 2h-14l-6-3-7-8-2-8 1-9 4-8 6-5zm0 4-6 4-4 5-1 3v12l5 8 5 3 9 1 8-3 6-7 1-3v-11l-3-6-6-5-2-1z" fill="#23C5F6"/>
<path transform="translate(499,489)" d="m0 0h10l7 3 5 5 4 7v14l-5 8-6 5-6 2h-8l-8-3-7-8-2-4v-14l4-8 8-6zm0 4-6 3-4 5-2 4v12l5 8 8 4h7l7-3 5-5 2-4v-12l-4-7-5-4-3-1z" fill="#23C5F6"/>
<path transform="translate(435,412)" d="m0 0h12l8 4 5 6 3 9-1 10-3 6-8 7-3 1h-14l-8-5-5-7-1-3v-12l5-10 7-5zm4 3-8 3-6 8-1 3v10l4 7 6 5 10 1 8-3 5-6 2-7-1-9-4-7-7-4z" fill="#23C5F6"/>
<path transform="translate(805,489)" d="m0 0 4 1 1 30 3 5 7 3h7l6-3 4-5 1-5 1-25h4v42h-4l-1-6-6 5-6 2h-7l-8-3-5-6-2-12v-14z" fill="#23C5F6"/>
<path transform="translate(390,412)" d="m0 0h12l8 4 2 3v3l-10-5h-12l-6 4-4 7v12l4 7 5 3 9 1 9-3 2-2h3l-1 4-5 4-11 2 1 3 5 3 1 5-3 5-1 1h-9l-2-4 8 1 3-3v-4l-6-1 1-7-7-1-8-7-3-7v-13l4-8 8-6z" fill="#23C5F6"/>
<path transform="translate(289,489)" d="m0 0h3v8h2l2-4 5-3 4-1h9l7 3 5 7 1 5v28h-4l-1-27-2-7-4-3-3-1h-10l-6 4-3 5-1 5-1 25h-3l-1-2v-41z" fill="#23C5F6"/>
<path transform="translate(244,415)" d="m0 0 9 1 8 7 2 6-6 2-27 5v-8l4-8 6-4z" fill="#021017"/>
<path transform="translate(746,415)" d="m0 0 9 1 8 7 1 6-5 2-27 5-1-5 3-8 5-5z" fill="#021017"/>
<path transform="translate(771,489)" d="m0 0h12l8 3v4l-5-1-3-1h-12l-4 2-1 7 2 3 19 5 6 5v9l-4 5-7 3h-10l-10-3-2-2v-4l5 2 6 2h11l6-4v-6l-5-3-16-4-5-4-1-2v-7l4-6 2-2z" fill="#23C5F6"/>
<path transform="translate(1030,489)" d="m0 0h12l8 3v4l-7-2h-13l-4 2-1 2v6l8 4 13 3 6 5v9l-5 6-6 2h-10l-10-3-2-2v-4l5 2 7 2h10l5-2 1-2v-7l-13-4-9-3-4-4-1-2v-6l4-6z" fill="#23C5F6"/>
<path transform="translate(786,412)" d="m0 0h14l7 3v4l-11-3h-7l-6 3-1 6 1 3 9 3 11 3 6 5 1 6-3 6-6 4h-16l-8-3-1-5 6 2 8 2 10-1 5-5-1-5-7-3-13-3-6-5-1-2v-6l4-6z" fill="#23C5F6"/>
<path transform="translate(480,412)" d="m0 0h14l7 3v4l-11-3-10 1-4 4 1 7 8 3 12 3 6 5 1 5-3 7-6 4h-16l-8-3-1-5 12 4h8l7-3 1-1v-7l-7-3-13-3-6-5-1-2 1-9 6-5z" fill="#23C5F6"/>
<path transform="translate(977,412)" d="m0 0h14l6 3v4l-11-3-10 1-3 3v7l5 3 16 4 5 4 1 2v7l-3 5-5 3-10 1-10-2-5-3v-4l5 2 7 2h8l7-3 1-1v-8l-17-4-7-3-3-4v-8l5-6z" fill="#23C5F6"/>
<path transform="translate(983,512)" d="m0 0h20l1 1-1 8-5 6-5 2h-11l-5-5-1-5 3-5z" fill="#021017"/>
<path transform="translate(943,489)" d="m0 0h9l8 3 3 4v3l-5-2-6-3h-10l-7 4-4 8v10l3 6 6 5 3 1h8l8-4 4-1-1 4-6 5-4 1h-8l-9-3-7-8-2-4v-14l3-6 8-7z" fill="#23C5F6"/>
<path transform="translate(867,512)" d="m0 0h21v7l-3 6-7 4h-11l-5-4-1-2v-6l3-4z" fill="#021017"/>
<path transform="translate(703,512)" d="m0 0h20v8l-4 6-6 3h-11l-4-2-2-4 1-7 3-3z" fill="#021017"/>
<path transform="translate(622,512)" d="m0 0h20l1 1-1 9-7 6-2 1h-11l-6-5v-7l3-4z" fill="#021017"/>
<path transform="translate(887,412)" d="m0 0h12l8 4 2 4-2 2-8-5-7-1-9 3-5 6-1 3v12l4 7 5 3 9 1 7-2 4-3h3l-1 4-7 5h-15l-8-4-5-7-2-8 1-10 5-8 5-4z" fill="#23C5F6"/>
<path transform="translate(1071,512)" d="m0 0h20l1 1-1 8-5 6-5 2h-10l-6-5v-8l3-3z" fill="#021017"/>
<path transform="translate(352,471)" d="m0 0h11l1 1v5l-9-2-4 2-1 2-1 10h14l-1 4h-13v39h-4v-39h-8v-4h6l2 1v-11l4-6z" fill="#23C5F6"/>
<path transform="translate(458,479)" d="m0 0h2l1 10h13v4h-13l1 32 1 3h9l4-1 1 3-2 2-10 1-5-3-3-4v-33h-8l-1-3 1-1h8v-9z" fill="#23C5F6"/>
<path transform="translate(306,412)" d="m0 0 4 1 13 28 3 9h2l1-5 15-33 4 1-10 23-8 17-4 3-5-8-14-31z" fill="#23C5F6"/>
<path transform="translate(824,402)" d="m0 0 2 1v9h14l-1 4h-12v29l2 5 2 1 11-1-1 4-1 1h-12l-5-5-1-3v-32h-8v-3h8v-9z" fill="#23C5F6"/>
<path transform="translate(280,412)" d="m0 0 4 1v6l8-6 8-1 1 3-11 4-4 5-1 4-1 27h-4z" fill="#23C5F6"/>
<path transform="translate(422,489)" d="m0 0 4 1-1 7 7-6 5-2h5v3l-10 4-4 5-1 3-1 28-4 1z" fill="#23C5F6"/>
<path transform="translate(664,489)" d="m0 0 4 1v7l7-6 5-2 4 1v3l-8 2-5 5-2 4-1 28-4 1z" fill="#23C5F6"/>
<path transform="translate(855,412)" d="m0 0 4 1v14l-1 28-4-1v-41z" fill="#23C5F6"/>
<path transform="translate(358,412)" d="m0 0h3v43h-4v-17z" fill="#23C5F6"/>
<path transform="translate(755,395)" d="m0 0h4l-2 4-8 6h-5l5-5z" fill="#23C5F6"/>
<path transform="translate(855,395)" d="m0 0 4 1 1 3-1 2h-5l-1-5z" fill="#23C5F6"/>
<path transform="translate(358,395)" d="m0 0h4v6l-4 1-2-5z" fill="#23C5F6"/>
</svg>
